<svg width="155" height="155" viewBox="0 0 155 155" fill="none" xmlns="http://www.w3.org/2000/svg">
<path d="M79.231 24.4395V119.689L102.954 81.9805L86.1278 16.4092L79.231 24.4395Z" fill="#002745"/>
<path d="M89.3176 16.3975C95.0873 38.5928 100.857 60.7869 106.627 82.9798L153.005 121.691L101.239 27.7441L89.3176 16.3975Z" fill="#002745"/>
<path d="M75.9223 24.4395V119.689L52.199 81.9805L69.0255 16.4092L75.9223 24.4395Z" fill="#002745"/>
<path d="M65.8357 16.3975L48.5267 82.9798L2.14844 121.691L53.9147 27.7441L65.8357 16.3975Z" fill="#002745"/>
<path fill-rule="evenodd" clip-rule="evenodd" d="M141.504 13.4936C136.786 8.77687 130.388 6.12709 123.717 6.12709H31.2788C24.6084 6.1281 18.2116 8.77833 13.495 13.495C8.77833 18.2116 6.1281 24.6084 6.12709 31.2788V123.717C6.12709 123.843 6.12802 123.968 6.12989 124.093L50.3225 86.3997L77.6512 129.361L104.98 86.3997L148.873 123.825C148.873 123.789 148.873 123.753 148.873 123.717V31.2788C148.872 24.6078 146.221 18.2104 141.504 13.4936ZM31.2788 0H123.717C132.011 0.00912059 139.962 3.30736 145.826 9.17119C151.691 15.035 154.99 22.9856 155 31.2788V123.717C154.99 132.011 151.691 139.962 145.826 145.826C139.962 151.691 132.011 154.99 123.717 155H31.2788C22.9856 154.99 15.035 151.691 9.17119 145.826C3.30736 139.962 0.00912059 132.011 0 123.717V31.2788C0.0091225 22.9859 3.30749 15.0354 9.17142 9.17142C15.0354 3.30749 22.9859 0.0091225 31.2788 0Z" fill="#002745"/>
</svg>
